<?xml version="1.0" encoding="UTF-8"?>
<svg xmlns="http://www.w3.org/2000/svg" xmlns:xlink="http://www.w3.org/1999/xlink" width="48px" height="48px" viewBox="0 0 48 48" version="1.1">
<g id="surface1">
<rect x="0" y="0" width="48" height="48" style="fill:rgb(100%,100%,100%);fill-opacity:1;stroke:none;"/>
<path style=" stroke:none;fill-rule:nonzero;fill:rgb(0%,40.000001%,100%);fill-opacity:1;" d="M 18.398438 21.554688 C 17.90625 21.34375 17.320312 21.703125 17.320312 22.238281 L 17.320312 24.992188 C 17.320312 25.375 17.527344 25.726562 17.871094 25.890625 C 18.925781 26.382812 21.355469 27.371094 24 27.371094 C 26.644531 27.371094 29.070312 26.382812 30.125 25.890625 C 30.472656 25.726562 30.679688 25.375 30.679688 24.992188 L 30.679688 22.238281 C 30.679688 21.703125 30.09375 21.34375 29.597656 21.554688 C 28.378906 22.074219 26.269531 22.800781 24 22.800781 C 21.730469 22.800781 19.617188 22.074219 18.398438 21.554688 Z M 18.398438 21.554688 "/>
<path style=" stroke:none;fill-rule:evenodd;fill:rgb(0%,40.000001%,100%);fill-opacity:1;" d="M 16.789062 34.75 L 20.484375 34.753906 L 20.484375 39.320312 L 27.539062 34.757812 L 31.195312 34.757812 C 34.582031 34.757812 37.617188 32.238281 37.878906 28.675781 C 38.121094 25.433594 38.128906 20.6875 37.871094 17.441406 C 37.609375 14.1875 34.992188 11.699219 31.804688 11.46875 C 26.789062 11.109375 21.234375 11.109375 16.222656 11.46875 C 13.03125 11.699219 10.414062 14.1875 10.152344 17.441406 C 9.894531 20.6875 9.859375 25.433594 10.097656 28.675781 C 10.363281 32.238281 13.402344 34.75 16.789062 34.75 Z M 16.546875 16.027344 C 21.34375 15.683594 26.679688 15.683594 31.476562 16.027344 C 32.480469 16.097656 33.238281 16.867188 33.316406 17.808594 C 33.554688 20.820312 33.542969 25.332031 33.324219 28.339844 C 33.25 29.335938 32.375 30.1875 31.195312 30.1875 L 27.539062 30.1875 L 20.484375 34.753906 L 20.484375 30.1875 L 16.78125 30.1875 C 15.601562 30.1875 14.730469 29.335938 14.65625 28.339844 C 14.433594 25.332031 14.46875 20.820312 14.710938 17.808594 C 14.785156 16.867188 15.542969 16.097656 16.546875 16.027344 Z M 16.546875 16.027344 "/>
</g>
</svg>
