<?xml version="1.0" encoding="UTF-8"?>
<svg xmlns="http://www.w3.org/2000/svg" xmlns:xlink="http://www.w3.org/1999/xlink" width="48px" height="48px" viewBox="0 0 48 48" version="1.1">
<g id="surface1">
<path style=" stroke:none;fill-rule:nonzero;fill:rgb(17.254902%,66.274512%,73.725492%);fill-opacity:1;" d="M 6 18 L 42 18 L 42 40 C 42 41.105469 41.105469 42 40 42 L 8 42 C 6.894531 42 6 41.105469 6 40 Z M 6 18 "/>
<path style="fill:none;stroke-width:2;stroke-linecap:round;stroke-linejoin:round;stroke:rgb(0%,0%,0%);stroke-opacity:1;stroke-miterlimit:4;" d="M 3 9 L 21 9 M 15 9 L 15 20 M 21 20 L 21 4 C 21 3.447266 20.552734 3 20 3 L 4 3 C 3.447266 3 3 3.447266 3 4 L 3 20 C 3 20.552734 3.447266 21 4 21 L 20 21 C 20.552734 21 21 20.552734 21 20 Z M 21 20 " transform="matrix(2,0,0,2,0,0)"/>
</g>
</svg>
