<?xml version="1.0" encoding="UTF-8"?>
<svg xmlns="http://www.w3.org/2000/svg" xmlns:xlink="http://www.w3.org/1999/xlink" width="48px" height="48px" viewBox="0 0 48 48" version="1.1">
<g id="surface1">
<rect x="0" y="0" width="48" height="48" style="fill:rgb(92.54902%,94.117647%,94.509804%);fill-opacity:1;stroke:none;"/>
<path style=" stroke:none;fill-rule:nonzero;fill:rgb(32.941177%,41.568628%,47.450981%);fill-opacity:1;" d="M 0 0 L 48 0 L 48 9.929688 L 0 9.929688 Z M 0 0 "/>
<path style=" stroke:none;fill-rule:nonzero;fill:rgb(92.941177%,44.313726%,38.039216%);fill-opacity:1;" d="M 7.449219 4.964844 C 7.449219 3.59375 6.335938 2.484375 4.964844 2.484375 C 3.59375 2.484375 2.484375 3.59375 2.484375 4.964844 C 2.484375 6.335938 3.59375 7.449219 4.964844 7.449219 C 6.335938 7.449219 7.449219 6.335938 7.449219 4.964844 Z M 7.449219 4.964844 "/>
<path style=" stroke:none;fill-rule:nonzero;fill:rgb(94.117647%,76.862746%,9.803922%);fill-opacity:1;" d="M 14.898438 4.964844 C 14.898438 3.59375 13.785156 2.484375 12.414062 2.484375 C 11.042969 2.484375 9.929688 3.59375 9.929688 4.964844 C 9.929688 6.335938 11.042969 7.449219 12.414062 7.449219 C 13.785156 7.449219 14.898438 6.335938 14.898438 4.964844 Z M 14.898438 4.964844 "/>
<path style=" stroke:none;fill-rule:nonzero;fill:rgb(30.980393%,72.941178%,43.529412%);fill-opacity:1;" d="M 22.34375 4.964844 C 22.34375 3.59375 21.234375 2.484375 19.863281 2.484375 C 18.492188 2.484375 17.378906 3.59375 17.378906 4.964844 C 17.378906 6.335938 18.492188 7.449219 19.863281 7.449219 C 21.234375 7.449219 22.34375 6.335938 22.34375 4.964844 Z M 22.34375 4.964844 "/>
<path style=" stroke:none;fill-rule:nonzero;fill:rgb(33.333334%,37.64706%,50.196081%);fill-opacity:1;" d="M 0 9.929688 L 9.929688 9.929688 L 9.929688 48 L 0 48 Z M 0 9.929688 "/>
<path style=" stroke:none;fill-rule:nonzero;fill:rgb(46.27451%,55.686277%,60.784316%);fill-opacity:1;" d="M 3.308594 15.722656 L 6.621094 15.722656 C 7.078125 15.722656 7.449219 15.355469 7.449219 14.898438 C 7.449219 14.4375 7.078125 14.070312 6.621094 14.070312 L 3.308594 14.070312 C 2.855469 14.070312 2.484375 14.4375 2.484375 14.898438 C 2.484375 15.355469 2.855469 15.722656 3.308594 15.722656 Z M 3.308594 15.722656 "/>
<path style=" stroke:none;fill-rule:nonzero;fill:rgb(46.27451%,55.686277%,60.784316%);fill-opacity:1;" d="M 6.621094 18.207031 L 3.308594 18.207031 C 2.855469 18.207031 2.484375 18.578125 2.484375 19.035156 C 2.484375 19.492188 2.855469 19.863281 3.308594 19.863281 L 6.621094 19.863281 C 7.078125 19.863281 7.449219 19.492188 7.449219 19.035156 C 7.449219 18.578125 7.078125 18.207031 6.621094 18.207031 Z M 6.621094 18.207031 "/>
<path style=" stroke:none;fill-rule:nonzero;fill:rgb(46.27451%,55.686277%,60.784316%);fill-opacity:1;" d="M 6.621094 22.34375 L 3.308594 22.34375 C 2.855469 22.34375 2.484375 22.714844 2.484375 23.171875 C 2.484375 23.628906 2.855469 24 3.308594 24 L 6.621094 24 C 7.078125 24 7.449219 23.628906 7.449219 23.171875 C 7.449219 22.714844 7.078125 22.34375 6.621094 22.34375 Z M 6.621094 22.34375 "/>
<path style=" stroke:none;fill-rule:nonzero;fill:rgb(46.27451%,55.686277%,60.784316%);fill-opacity:1;" d="M 6.621094 26.484375 L 3.308594 26.484375 C 2.855469 26.484375 2.484375 26.851562 2.484375 27.308594 C 2.484375 27.769531 2.855469 28.136719 3.308594 28.136719 L 6.621094 28.136719 C 7.078125 28.136719 7.449219 27.769531 7.449219 27.308594 C 7.449219 26.851562 7.078125 26.484375 6.621094 26.484375 Z M 6.621094 26.484375 "/>
<path style=" stroke:none;fill-rule:nonzero;fill:rgb(46.27451%,55.686277%,60.784316%);fill-opacity:1;" d="M 6.621094 30.621094 L 3.308594 30.621094 C 2.855469 30.621094 2.484375 30.992188 2.484375 31.449219 C 2.484375 31.90625 2.855469 32.277344 3.308594 32.277344 L 6.621094 32.277344 C 7.078125 32.277344 7.449219 31.90625 7.449219 31.449219 C 7.449219 30.992188 7.078125 30.621094 6.621094 30.621094 Z M 6.621094 30.621094 "/>
<path style=" stroke:none;fill-rule:nonzero;fill:rgb(46.27451%,55.686277%,60.784316%);fill-opacity:1;" d="M 6.621094 34.757812 L 3.308594 34.757812 C 2.855469 34.757812 2.484375 35.128906 2.484375 35.585938 C 2.484375 36.042969 2.855469 36.414062 3.308594 36.414062 L 6.621094 36.414062 C 7.078125 36.414062 7.449219 36.042969 7.449219 35.585938 C 7.449219 35.128906 7.078125 34.757812 6.621094 34.757812 Z M 6.621094 34.757812 "/>
<path style=" stroke:none;fill-rule:nonzero;fill:rgb(46.27451%,55.686277%,60.784316%);fill-opacity:1;" d="M 6.621094 38.898438 L 3.308594 38.898438 C 2.855469 38.898438 2.484375 39.265625 2.484375 39.722656 C 2.484375 40.183594 2.855469 40.550781 3.308594 40.550781 L 6.621094 40.550781 C 7.078125 40.550781 7.449219 40.183594 7.449219 39.722656 C 7.449219 39.265625 7.078125 38.898438 6.621094 38.898438 Z M 6.621094 38.898438 "/>
<path style=" stroke:none;fill-rule:nonzero;fill:rgb(46.27451%,55.686277%,60.784316%);fill-opacity:1;" d="M 6.621094 43.035156 L 3.308594 43.035156 C 2.855469 43.035156 2.484375 43.40625 2.484375 43.863281 C 2.484375 44.320312 2.855469 44.691406 3.308594 44.691406 L 6.621094 44.691406 C 7.078125 44.691406 7.449219 44.320312 7.449219 43.863281 C 7.449219 43.40625 7.078125 43.035156 6.621094 43.035156 Z M 6.621094 43.035156 "/>
<path style=" stroke:none;fill-rule:nonzero;fill:rgb(59.215689%,46.666667%,65.882355%);fill-opacity:1;" d="M 14.898438 14.898438 L 26.484375 14.898438 L 26.484375 26.484375 L 14.898438 26.484375 Z M 14.898438 14.898438 "/>
<path style=" stroke:none;fill-rule:nonzero;fill:rgb(94.901961%,61.176473%,12.156863%);fill-opacity:1;" d="M 31.449219 14.898438 L 43.035156 14.898438 L 43.035156 26.484375 L 31.449219 26.484375 Z M 31.449219 14.898438 "/>
<path style=" stroke:none;fill-rule:nonzero;fill:rgb(14.901961%,72.549021%,60.392159%);fill-opacity:1;" d="M 14.898438 31.449219 L 26.484375 31.449219 L 26.484375 43.035156 L 14.898438 43.035156 Z M 14.898438 31.449219 "/>
<path style=" stroke:none;fill-rule:nonzero;fill:rgb(92.941177%,44.313726%,38.039216%);fill-opacity:1;" d="M 31.449219 31.449219 L 43.035156 31.449219 L 43.035156 43.035156 L 31.449219 43.035156 Z M 31.449219 31.449219 "/>
</g>
</svg>
