<?xml version="1.0" encoding="UTF-8"?>
<svg xmlns="http://www.w3.org/2000/svg" xmlns:xlink="http://www.w3.org/1999/xlink" width="48px" height="48px" viewBox="0 0 48 48" version="1.1">
<g id="surface1">
<path style=" stroke:none;fill-rule:nonzero;fill:rgb(0%,45.490196%,60.392159%);fill-opacity:1;" d="M 3.390625 24 C 3.390625 32.175781 8.085938 39.21875 14.941406 42.523438 L 5.21875 15.652344 C 4.085938 18.261719 3.390625 21.046875 3.390625 24 Z M 37.914062 22.957031 C 37.914062 20.4375 36.957031 18.605469 36.171875 17.304688 C 35.128906 15.5625 34.171875 14.171875 34.171875 12.433594 C 34.171875 10.523438 35.652344 8.78125 37.652344 8.78125 L 37.914062 8.78125 C 34.261719 5.390625 29.390625 3.390625 24 3.390625 C 17.074219 3.453125 10.628906 6.933594 6.78125 12.695312 L 8.089844 12.695312 C 10.261719 12.695312 13.566406 12.433594 13.566406 12.433594 C 14.695312 12.347656 14.785156 13.996094 13.738281 14.171875 C 13.738281 14.171875 12.609375 14.347656 11.390625 14.347656 L 18.871094 36.609375 L 23.390625 23.128906 L 20.175781 14.347656 L 18 14.175781 C 16.867188 14.089844 17.042969 12.433594 18.085938 12.433594 C 18.085938 12.433594 21.476562 12.695312 23.476562 12.695312 C 25.652344 12.695312 28.957031 12.433594 28.957031 12.433594 C 30.085938 12.347656 30.175781 14 29.128906 14.175781 C 29.128906 14.175781 28 14.347656 26.78125 14.347656 L 34.261719 36.523438 L 36.359375 29.65625 C 37.230469 26.785156 37.925781 24.785156 37.925781 22.960938 Z M 24.347656 25.824219 L 18.175781 43.738281 C 20 44.261719 22 44.609375 24 44.609375 C 26.433594 44.609375 28.695312 44.160156 30.871094 43.480469 C 30.78125 43.390625 30.78125 43.304688 30.695312 43.21875 Z M 42.085938 14.175781 L 42.261719 16.273438 C 42.261719 18.375 41.914062 20.710938 40.695312 23.667969 L 34.433594 41.839844 C 40.523438 38.277344 44.695312 31.667969 44.695312 24.015625 C 44.609375 20.449219 43.652344 17.144531 42.085938 14.191406 Z M 24 0 C 10.78125 0 0 10.78125 0 24 C 0 37.21875 10.78125 48 24 48 C 37.21875 48 48 37.21875 48 24 C 48 10.78125 37.21875 0 24 0 Z M 24 46.957031 C 11.390625 46.957031 1.132812 36.695312 1.132812 24 C 1.152344 11.378906 11.378906 1.152344 24 1.132812 C 36.621094 1.152344 46.847656 11.378906 46.867188 24 C 46.867188 36.695312 36.609375 46.957031 24 46.957031 Z M 24 46.957031 "/>
</g>
</svg>
