<?xml version="1.0" encoding="UTF-8"?>
<svg xmlns="http://www.w3.org/2000/svg" xmlns:xlink="http://www.w3.org/1999/xlink" width="34px" height="39px" viewBox="0 0 34 38" version="1.1">
<g id="surface1">
<path style=" stroke:none;fill-rule:nonzero;fill:rgb(58.431375%,74.901962%,27.450982%);fill-opacity:1;" d="M 29.71875 7.460938 C 29.691406 7.273438 29.523438 7.167969 29.382812 7.15625 C 29.242188 7.144531 26.277344 6.929688 26.277344 6.929688 C 26.277344 6.929688 24.21875 4.925781 23.992188 4.703125 C 23.765625 4.480469 23.324219 4.550781 23.152344 4.597656 C 23.125 4.605469 22.703125 4.734375 22 4.949219 C 21.3125 3.007812 20.097656 1.226562 17.960938 1.226562 C 17.902344 1.226562 17.84375 1.226562 17.78125 1.230469 C 17.175781 0.445312 16.421875 0.101562 15.773438 0.101562 C 10.796875 0.101562 8.417969 6.195312 7.675781 9.292969 C 5.742188 9.878906 4.367188 10.296875 4.191406 10.351562 C 3.113281 10.683594 3.078125 10.71875 2.9375 11.714844 C 2.832031 12.46875 0.0078125 33.867188 0.0078125 33.867188 L 22.007812 37.90625 L 33.929688 35.378906 C 33.929688 35.378906 29.746094 7.652344 29.71875 7.460938 Z M 20.785156 5.316406 L 18.921875 5.878906 C 18.921875 5.75 18.921875 5.625 18.921875 5.488281 C 18.921875 4.28125 18.753906 3.3125 18.476562 2.542969 C 19.578125 2.675781 20.3125 3.902344 20.785156 5.316406 Z M 17.113281 2.78125 C 17.417969 3.53125 17.617188 4.609375 17.617188 6.066406 C 17.617188 6.140625 17.617188 6.207031 17.617188 6.277344 C 16.40625 6.644531 15.089844 7.042969 13.773438 7.441406 C 14.511719 4.644531 15.898438 3.289062 17.113281 2.78125 Z M 15.636719 1.410156 C 15.851562 1.410156 16.066406 1.480469 16.273438 1.621094 C 14.679688 2.355469 12.96875 4.207031 12.246094 7.90625 L 9.207031 8.828125 C 10.054688 6.007812 12.0625 1.410156 15.636719 1.410156 Z M 15.636719 1.410156 "/>
<path style=" stroke:none;fill-rule:nonzero;fill:rgb(36.862746%,55.686277%,24.313726%);fill-opacity:1;" d="M 29.382812 7.15625 C 29.242188 7.144531 26.277344 6.929688 26.277344 6.929688 C 26.277344 6.929688 24.21875 4.925781 23.992188 4.703125 C 23.90625 4.621094 23.792969 4.578125 23.671875 4.558594 L 22.007812 37.90625 L 33.929688 35.378906 C 33.929688 35.378906 29.746094 7.652344 29.71875 7.460938 C 29.691406 7.273438 29.523438 7.167969 29.382812 7.15625 "/>
<path style=" stroke:none;fill-rule:nonzero;fill:rgb(100%,100%,100%);fill-opacity:1;" d="M 17.960938 13.609375 L 16.492188 17.894531 C 16.492188 17.894531 15.203125 17.222656 13.625 17.222656 C 11.3125 17.222656 11.195312 18.644531 11.195312 19.003906 C 11.195312 20.960938 16.398438 21.710938 16.398438 26.292969 C 16.398438 29.902344 14.066406 32.222656 10.917969 32.222656 C 7.140625 32.222656 5.210938 29.917969 5.210938 29.917969 L 6.222656 26.644531 C 6.222656 26.644531 8.207031 28.316406 9.882812 28.316406 C 10.976562 28.316406 11.421875 27.472656 11.421875 26.855469 C 11.421875 24.300781 7.152344 24.1875 7.152344 19.992188 C 7.152344 16.460938 9.738281 13.046875 14.957031 13.046875 C 16.96875 13.046875 17.960938 13.609375 17.960938 13.609375 "/>
</g>
</svg>
