<?xml version="1.0" encoding="UTF-8"?>
<svg xmlns="http://www.w3.org/2000/svg" xmlns:xlink="http://www.w3.org/1999/xlink" width="49px" height="49px" viewBox="0 0 49 49" version="1.1">
<defs>
<linearGradient id="linear0" gradientUnits="userSpaceOnUse" x1="811.526978" y1="574.89502" x2="665.255005" y2="573.731995" gradientTransform="matrix(0.247603,0,0,0.242074,-164.667017,-125.044743)">
<stop offset="0" style="stop-color:rgb(21.176471%,41.568627%,58.823529%);stop-opacity:1;"/>
<stop offset="1" style="stop-color:rgb(21.176471%,47.45098%,69.019608%);stop-opacity:1;"/>
</linearGradient>
<linearGradient id="linear1" gradientUnits="userSpaceOnUse" x1="862.823975" y1="642.176025" x2="573.276001" y2="642.176025" gradientTransform="matrix(0.247603,0,0,0.242074,-164.667017,-125.044743)">
<stop offset="0" style="stop-color:rgb(100%,78.431373%,21.176471%);stop-opacity:1;"/>
<stop offset="1" style="stop-color:rgb(100%,90.980392%,45.098039%);stop-opacity:1;"/>
</linearGradient>
</defs>
<g id="surface1">
<path style=" stroke:none;fill-rule:nonzero;fill:url(#linear0);" d="M 12.679688 6.761719 C 12.679688 3.464844 13.585938 1.667969 18.578125 0.816406 C 21.96875 0.234375 26.316406 0.160156 30.371094 0.816406 C 33.574219 1.332031 36.269531 3.664062 36.269531 6.761719 L 36.269531 17.640625 C 36.269531 20.832031 33.652344 23.445312 30.371094 23.445312 L 18.578125 23.445312 C 14.574219 23.445312 11.203125 26.78125 11.203125 30.554688 L 11.203125 35.773438 L 7.148438 35.773438 C 3.71875 35.773438 1.722656 33.355469 0.882812 29.972656 C -0.25 25.429688 -0.199219 22.71875 0.882812 18.367188 C 1.820312 14.570312 4.824219 12.566406 8.253906 12.566406 L 24.476562 12.566406 L 24.476562 11.113281 L 12.679688 11.113281 Z M 12.679688 6.761719 "/>
<path style=" stroke:none;fill-rule:nonzero;fill:url(#linear1);" d="M 36.269531 41.578125 C 36.269531 44.878906 33.34375 46.546875 30.371094 47.378906 C 25.902344 48.636719 22.3125 48.445312 18.578125 47.378906 C 15.457031 46.492188 12.679688 44.675781 12.679688 41.578125 L 12.679688 30.699219 C 12.679688 27.566406 15.351562 24.894531 18.578125 24.894531 L 30.371094 24.894531 C 34.300781 24.894531 37.746094 21.574219 37.746094 17.640625 L 37.746094 12.566406 L 42.167969 12.566406 C 45.601562 12.566406 47.21875 15.0625 48.066406 18.367188 C 49.246094 22.960938 49.296875 26.394531 48.066406 29.972656 C 46.875 33.449219 45.597656 35.773438 42.167969 35.773438 L 24.476562 35.773438 L 24.476562 37.226562 L 36.269531 37.226562 Z M 36.269531 41.578125 "/>
<path style=" stroke:none;fill-rule:nonzero;fill:rgb(100%,100%,100%);fill-opacity:1;" d="M 15.628906 6.039062 C 15.628906 4.835938 16.617188 3.859375 17.839844 3.859375 C 19.058594 3.859375 20.050781 4.835938 20.050781 6.039062 C 20.050781 7.238281 19.058594 8.214844 17.839844 8.214844 C 16.617188 8.214844 15.628906 7.238281 15.628906 6.039062 Z M 28.898438 42.300781 C 28.898438 41.101562 29.890625 40.128906 31.109375 40.128906 C 32.332031 40.128906 33.320312 41.101562 33.320312 42.300781 C 33.320312 43.507812 32.332031 44.480469 31.109375 44.480469 C 29.890625 44.480469 28.898438 43.507812 28.898438 42.300781 Z M 28.898438 42.300781 "/>
</g>
</svg>
