<?xml version="1.0" encoding="UTF-8"?>
<svg xmlns="http://www.w3.org/2000/svg" xmlns:xlink="http://www.w3.org/1999/xlink" width="35px" height="39px" viewBox="0 0 35 39" version="1.1">
<defs>
<clipPath id="clip1">
  <path d="M 0 1 L 35 1 L 35 38 L 0 38 Z M 0 1 "/>
</clipPath>
<clipPath id="clip2">
  <path d="M 0.492188 19.480469 C 0.492188 29.675781 8.109375 37.945312 17.503906 37.945312 C 26.902344 37.945312 34.519531 29.675781 34.519531 19.480469 C 34.519531 9.28125 26.902344 1.015625 17.503906 1.015625 C 8.109375 1.015625 0.492188 9.28125 0.492188 19.480469 "/>
</clipPath>
<radialGradient id="radial0" gradientUnits="userSpaceOnUse" cx="0" cy="0" fx="0" fy="0" r="1" gradientTransform="matrix(22.34006,0,0,46.091334,10.706752,7.506974)">
<stop offset="0" style="stop-color:rgb(68.235294%,69.803922%,83.529412%);stop-opacity:1;"/>
<stop offset="0.3" style="stop-color:rgb(68.235294%,69.803922%,83.529412%);stop-opacity:1;"/>
<stop offset="0.75" style="stop-color:rgb(28.235294%,29.803922%,53.72549%);stop-opacity:1;"/>
<stop offset="1" style="stop-color:rgb(28.235294%,29.803922%,53.72549%);stop-opacity:1;"/>
</radialGradient>
</defs>
<g id="surface1">
<g clip-path="url(#clip1)" clip-rule="nonzero">
<g clip-path="url(#clip2)" clip-rule="nonzero">
<path style=" stroke:none;fill-rule:nonzero;fill:url(#radial0);" d="M 0.492188 19.480469 C 0.492188 29.675781 8.109375 37.945312 17.503906 37.945312 C 26.902344 37.945312 34.519531 29.675781 34.519531 19.480469 C 34.519531 9.28125 26.902344 1.015625 17.503906 1.015625 C 8.109375 1.015625 0.492188 9.28125 0.492188 19.480469 "/>
</g>
</g>
<path style=" stroke:none;fill-rule:nonzero;fill:rgb(46.666667%,48.235294%,70.19608%);fill-opacity:1;" d="M 17.503906 36.574219 C 26.535156 36.574219 33.851562 28.917969 33.851562 19.480469 C 33.851562 10.039062 26.535156 2.386719 17.503906 2.386719 C 8.476562 2.386719 1.15625 10.039062 1.15625 19.480469 C 1.15625 28.917969 8.476562 36.574219 17.503906 36.574219 "/>
<path style=" stroke:none;fill-rule:nonzero;fill:rgb(0%,0%,0%);fill-opacity:1;" d="M 9.734375 21.597656 C 10.476562 21.597656 11.03125 21.316406 11.382812 20.757812 C 11.730469 20.207031 11.96875 19.253906 12.09375 17.921875 C 12.210938 16.675781 12.167969 15.808594 11.960938 15.339844 C 11.753906 14.859375 11.300781 14.617188 10.613281 14.617188 L 9.429688 14.617188 L 8.769531 21.597656 Z M 5.855469 30.199219 C 5.800781 30.199219 5.746094 30.148438 5.710938 30.0625 C 5.675781 29.972656 5.664062 29.859375 5.671875 29.746094 L 7.417969 11.242188 C 7.433594 11.0625 7.507812 10.933594 7.597656 10.933594 L 11.355469 10.933594 C 12.535156 10.933594 13.414062 11.597656 13.96875 12.902344 C 14.523438 14.210938 14.695312 16.046875 14.476562 18.351562 C 14.386719 19.289062 14.234375 20.160156 14.023438 20.941406 C 13.8125 21.722656 13.535156 22.445312 13.195312 23.089844 C 12.785156 23.875 12.324219 24.445312 11.824219 24.78125 C 11.332031 25.113281 10.699219 25.28125 9.945312 25.28125 L 8.425781 25.28125 L 7.988281 29.890625 C 7.972656 30.070312 7.898438 30.199219 7.808594 30.199219 Z M 5.855469 30.199219 "/>
<path style=" stroke:none;fill-rule:nonzero;fill:rgb(100%,100%,100%);fill-opacity:1;" d="M 9.582031 14.996094 L 10.613281 14.996094 C 11.441406 14.996094 11.726562 15.371094 11.824219 15.59375 C 11.988281 15.964844 12.015625 16.742188 11.914062 17.847656 C 11.796875 19.085938 11.582031 19.964844 11.269531 20.457031 C 10.953125 20.960938 10.4375 21.21875 9.734375 21.21875 L 8.996094 21.21875 Z M 11.355469 10.554688 L 7.597656 10.554688 C 7.421875 10.554688 7.269531 10.8125 7.234375 11.171875 L 5.492188 29.671875 C 5.472656 29.898438 5.5 30.128906 5.570312 30.304688 C 5.640625 30.480469 5.746094 30.582031 5.855469 30.582031 L 7.808594 30.582031 C 7.984375 30.582031 8.136719 30.320312 8.171875 29.964844 L 8.578125 25.660156 L 9.945312 25.660156 C 10.71875 25.660156 11.371094 25.488281 11.882812 25.144531 C 12.40625 24.792969 12.890625 24.195312 13.320312 23.367188 C 13.671875 22.695312 13.964844 21.941406 14.1875 21.125 C 14.40625 20.3125 14.566406 19.402344 14.65625 18.421875 C 14.886719 15.996094 14.699219 14.054688 14.105469 12.648438 C 13.515625 11.257812 12.589844 10.554688 11.355469 10.554688 M 8.546875 21.980469 L 9.734375 21.980469 C 10.523438 21.980469 11.109375 21.671875 11.496094 21.0625 C 11.882812 20.449219 12.140625 19.425781 12.277344 17.996094 C 12.40625 16.621094 12.347656 15.648438 12.097656 15.082031 C 11.851562 14.519531 11.355469 14.234375 10.613281 14.234375 L 9.277344 14.234375 L 8.546875 21.980469 M 11.355469 11.316406 C 12.484375 11.316406 13.308594 11.925781 13.828125 13.152344 C 14.347656 14.375 14.503906 16.082031 14.296875 18.277344 C 14.210938 19.179688 14.066406 20.007812 13.863281 20.753906 C 13.660156 21.503906 13.394531 22.1875 13.070312 22.808594 C 12.679688 23.5625 12.246094 24.101562 11.769531 24.417969 C 11.292969 24.738281 10.683594 24.898438 9.945312 24.898438 L 8.273438 24.898438 L 7.808594 29.820312 L 5.855469 29.820312 L 7.597656 11.316406 L 11.355469 11.316406 "/>
<path style=" stroke:none;fill-rule:nonzero;fill:rgb(0%,0%,0%);fill-opacity:1;" d="M 18.957031 25.28125 C 18.902344 25.28125 18.847656 25.230469 18.8125 25.140625 C 18.777344 25.054688 18.765625 24.9375 18.773438 24.828125 L 19.546875 16.640625 C 19.621094 15.859375 19.601562 15.300781 19.496094 15.066406 C 19.429688 14.921875 19.234375 14.679688 18.65625 14.679688 L 17.261719 14.679688 L 16.292969 24.972656 C 16.273438 25.152344 16.199219 25.28125 16.109375 25.28125 L 14.171875 25.28125 C 14.117188 25.28125 14.066406 25.230469 14.03125 25.140625 C 13.996094 25.054688 13.980469 24.9375 13.992188 24.828125 L 15.734375 6.324219 C 15.75 6.144531 15.828125 6.015625 15.914062 6.015625 L 17.851562 6.015625 C 17.910156 6.015625 17.960938 6.066406 17.996094 6.152344 C 18.03125 6.242188 18.046875 6.355469 18.035156 6.46875 L 17.613281 10.933594 L 19.117188 10.933594 C 20.261719 10.933594 21.039062 11.351562 21.488281 12.207031 C 21.949219 13.082031 22.09375 14.480469 21.917969 16.363281 L 21.105469 24.972656 C 21.089844 25.152344 21.011719 25.28125 20.925781 25.28125 Z M 18.957031 25.28125 "/>
<path style=" stroke:none;fill-rule:nonzero;fill:rgb(100%,100%,100%);fill-opacity:1;" d="M 17.851562 5.632812 L 15.914062 5.632812 C 15.738281 5.632812 15.585938 5.894531 15.550781 6.25 L 13.808594 24.753906 C 13.789062 24.976562 13.816406 25.207031 13.886719 25.382812 C 13.957031 25.558594 14.0625 25.660156 14.171875 25.660156 L 16.109375 25.660156 C 16.285156 25.660156 16.4375 25.402344 16.472656 25.042969 L 17.414062 15.0625 L 18.65625 15.0625 C 19.234375 15.0625 19.355469 15.316406 19.359375 15.324219 C 19.394531 15.402344 19.441406 15.761719 19.363281 16.566406 L 18.59375 24.753906 C 18.574219 24.976562 18.601562 25.207031 18.671875 25.382812 C 18.742188 25.558594 18.847656 25.660156 18.957031 25.660156 L 20.925781 25.660156 C 21.101562 25.660156 21.253906 25.402344 21.289062 25.042969 L 22.097656 16.433594 C 22.289062 14.414062 22.125 12.898438 21.613281 11.925781 C 21.125 11.003906 20.308594 10.554688 19.117188 10.554688 L 17.835938 10.554688 L 18.214844 6.542969 C 18.238281 6.316406 18.207031 6.085938 18.136719 5.910156 C 18.066406 5.734375 17.964844 5.632812 17.851562 5.632812 M 17.851562 6.394531 L 17.390625 11.316406 L 19.117188 11.316406 C 20.203125 11.316406 20.953125 11.707031 21.363281 12.488281 C 21.777344 13.269531 21.902344 14.539062 21.734375 16.289062 L 20.925781 24.898438 L 18.957031 24.898438 L 19.726562 16.710938 C 19.816406 15.78125 19.78125 15.144531 19.628906 14.808594 C 19.476562 14.46875 19.152344 14.300781 18.65625 14.300781 L 17.109375 14.300781 L 16.109375 24.898438 L 14.171875 24.898438 L 15.914062 6.394531 L 17.851562 6.394531 "/>
<path style=" stroke:none;fill-rule:nonzero;fill:rgb(0%,0%,0%);fill-opacity:1;" d="M 24.984375 21.597656 C 25.726562 21.597656 26.28125 21.316406 26.632812 20.757812 C 26.976562 20.207031 27.21875 19.253906 27.34375 17.921875 C 27.460938 16.675781 27.417969 15.808594 27.210938 15.339844 C 27 14.859375 26.546875 14.617188 25.863281 14.617188 L 24.675781 14.617188 L 24.019531 21.597656 Z M 21.105469 30.199219 C 21.046875 30.199219 20.996094 30.148438 20.960938 30.0625 C 20.925781 29.972656 20.914062 29.859375 20.921875 29.746094 L 22.664062 11.242188 C 22.683594 11.0625 22.757812 10.933594 22.847656 10.933594 L 26.605469 10.933594 C 27.785156 10.933594 28.664062 11.597656 29.214844 12.902344 C 29.769531 14.210938 29.941406 16.046875 29.726562 18.351562 C 29.636719 19.289062 29.484375 20.160156 29.273438 20.941406 C 29.0625 21.722656 28.78125 22.445312 28.441406 23.089844 C 28.035156 23.875 27.574219 24.445312 27.074219 24.78125 C 26.582031 25.113281 25.949219 25.28125 25.195312 25.28125 L 23.671875 25.28125 L 23.238281 29.890625 C 23.222656 30.070312 23.144531 30.199219 23.058594 30.199219 Z M 21.105469 30.199219 "/>
<path style=" stroke:none;fill-rule:nonzero;fill:rgb(100%,100%,100%);fill-opacity:1;" d="M 24.828125 14.996094 L 25.863281 14.996094 C 26.691406 14.996094 26.976562 15.371094 27.074219 15.59375 C 27.234375 15.964844 27.265625 16.742188 27.164062 17.847656 C 27.046875 19.085938 26.828125 19.964844 26.519531 20.457031 C 26.203125 20.960938 25.683594 21.21875 24.984375 21.21875 L 24.242188 21.21875 Z M 26.605469 10.554688 L 22.847656 10.554688 C 22.671875 10.554688 22.519531 10.8125 22.484375 11.171875 L 20.742188 29.671875 C 20.71875 29.898438 20.75 30.128906 20.820312 30.304688 C 20.890625 30.480469 20.992188 30.582031 21.105469 30.582031 L 23.058594 30.582031 C 23.234375 30.582031 23.386719 30.320312 23.421875 29.964844 L 23.824219 25.660156 L 25.195312 25.660156 C 25.96875 25.660156 26.621094 25.488281 27.132812 25.144531 C 27.65625 24.792969 28.140625 24.195312 28.570312 23.367188 C 28.921875 22.695312 29.214844 21.941406 29.433594 21.125 C 29.65625 20.3125 29.816406 19.402344 29.90625 18.421875 C 30.136719 15.996094 29.949219 14.054688 29.355469 12.648438 C 28.765625 11.257812 27.839844 10.554688 26.605469 10.554688 M 23.796875 21.980469 L 24.984375 21.980469 C 25.773438 21.980469 26.359375 21.671875 26.746094 21.0625 C 27.128906 20.449219 27.390625 19.425781 27.523438 17.996094 C 27.652344 16.621094 27.59375 15.648438 27.347656 15.082031 C 27.101562 14.519531 26.605469 14.234375 25.863281 14.234375 L 24.527344 14.234375 L 23.796875 21.980469 M 26.605469 11.316406 C 27.734375 11.316406 28.558594 11.925781 29.078125 13.152344 C 29.59375 14.375 29.75 16.082031 29.542969 18.277344 C 29.460938 19.179688 29.316406 20.007812 29.113281 20.753906 C 28.910156 21.503906 28.644531 22.1875 28.316406 22.808594 C 27.925781 23.5625 27.492188 24.101562 27.015625 24.417969 C 26.539062 24.738281 25.933594 24.898438 25.195312 24.898438 L 23.519531 24.898438 L 23.058594 29.820312 L 21.105469 29.820312 L 22.847656 11.316406 L 26.605469 11.316406 "/>
</g>
</svg>
