<?xml version="1.0" encoding="UTF-8"?>
<svg xmlns="http://www.w3.org/2000/svg" xmlns:xlink="http://www.w3.org/1999/xlink" width="35px" height="39px" viewBox="0 0 35 39" version="1.1">
<g id="surface1">
<path style=" stroke:none;fill-rule:nonzero;fill:rgb(89.411765%,30.19608%,14.901961%);fill-opacity:1;" d="M 7.359375 35.867188 L 5.101562 7.664062 L 29.898438 7.664062 L 27.640625 35.863281 L 17.484375 39 Z M 7.359375 35.867188 "/>
<path style=" stroke:none;fill-rule:nonzero;fill:rgb(94.509804%,39.607844%,16.078432%);fill-opacity:1;" d="M 17.5 36.601562 L 25.707031 34.066406 L 27.636719 9.96875 L 17.5 9.96875 Z M 17.5 36.601562 "/>
<path style=" stroke:none;fill-rule:nonzero;fill:rgb(92.156863%,92.156863%,92.156863%);fill-opacity:1;" d="M 17.5 20.429688 L 13.390625 20.429688 L 13.109375 16.886719 L 17.5 16.886719 L 17.5 13.429688 L 9.714844 13.429688 L 9.789062 14.359375 L 10.554688 23.890625 L 17.5 23.890625 Z M 17.5 20.429688 "/>
<path style=" stroke:none;fill-rule:nonzero;fill:rgb(92.156863%,92.156863%,92.156863%);fill-opacity:1;" d="M 17.5 29.414062 L 17.488281 29.417969 L 14.027344 28.378906 L 13.808594 25.617188 L 10.691406 25.617188 L 11.125 31.050781 L 17.484375 33.015625 L 17.5 33.011719 Z M 17.5 29.414062 "/>
<path style=" stroke:none;fill-rule:nonzero;fill:rgb(0%,0%,0%);fill-opacity:1;" d="M 7.410156 0 L 8.988281 0 L 8.988281 1.738281 L 10.429688 1.738281 L 10.429688 0 L 12.007812 0 L 12.007812 5.257812 L 10.429688 5.257812 L 10.429688 3.5 L 8.988281 3.5 L 8.988281 5.257812 L 7.410156 5.257812 Z M 7.410156 0 "/>
<path style=" stroke:none;fill-rule:nonzero;fill:rgb(0%,0%,0%);fill-opacity:1;" d="M 14.082031 1.742188 L 12.691406 1.742188 L 12.691406 0 L 17.046875 0 L 17.046875 1.742188 L 15.660156 1.742188 L 15.660156 5.257812 L 14.082031 5.257812 Z M 14.082031 1.742188 "/>
<path style=" stroke:none;fill-rule:nonzero;fill:rgb(0%,0%,0%);fill-opacity:1;" d="M 17.738281 0 L 19.386719 0 L 20.398438 1.847656 L 21.40625 0 L 23.054688 0 L 23.054688 5.257812 L 21.480469 5.257812 L 21.480469 2.652344 L 20.398438 4.523438 L 20.371094 4.523438 L 19.285156 2.652344 L 19.285156 5.257812 L 17.738281 5.257812 Z M 17.738281 0 "/>
<path style=" stroke:none;fill-rule:nonzero;fill:rgb(0%,0%,0%);fill-opacity:1;" d="M 23.839844 0 L 25.417969 0 L 25.417969 3.519531 L 27.632812 3.519531 L 27.632812 5.257812 L 23.839844 5.257812 Z M 23.839844 0 "/>
<path style=" stroke:none;fill-rule:nonzero;fill:rgb(100%,100%,100%);fill-opacity:1;" d="M 17.488281 20.429688 L 17.488281 23.890625 L 21.3125 23.890625 L 20.953125 28.375 L 17.488281 29.417969 L 17.488281 33.015625 L 23.851562 31.050781 L 23.898438 30.464844 L 24.628906 21.359375 L 24.703125 20.429688 Z M 17.488281 20.429688 "/>
<path style=" stroke:none;fill-rule:nonzero;fill:rgb(100%,100%,100%);fill-opacity:1;" d="M 17.488281 13.429688 L 17.488281 16.886719 L 24.988281 16.886719 L 25.050781 16.109375 L 25.191406 14.359375 L 25.265625 13.429688 Z M 17.488281 13.429688 "/>
</g>
</svg>
