<?xml version="1.0" encoding="UTF-8"?>
<svg xmlns="http://www.w3.org/2000/svg" xmlns:xlink="http://www.w3.org/1999/xlink" width="35px" height="39px" viewBox="0 0 35 39" version="1.1">
<g id="surface1">
<path style=" stroke:none;fill-rule:nonzero;fill:rgb(33.333334%,33.333334%,53.333336%);fill-opacity:1;" d="M 0.847656 26.996094 C 0.847656 26.410156 0.917969 25.917969 1.066406 25.515625 C 1.207031 25.136719 1.425781 24.796875 1.703125 24.527344 C 1.980469 24.273438 2.300781 24.089844 2.644531 23.984375 C 3.003906 23.871094 3.386719 23.816406 3.804688 23.816406 C 4.175781 23.8125 4.550781 23.871094 4.910156 23.984375 C 5.269531 24.097656 5.582031 24.277344 5.851562 24.527344 C 6.121094 24.777344 6.332031 25.105469 6.488281 25.515625 C 6.644531 25.917969 6.722656 26.410156 6.722656 26.996094 C 6.722656 27.554688 6.644531 28.035156 6.488281 28.4375 C 6.34375 28.816406 6.128906 29.152344 5.851562 29.425781 C 5.582031 29.6875 5.269531 29.875 4.910156 29.988281 C 4.550781 30.113281 4.179688 30.175781 3.804688 30.171875 C 3.386719 30.171875 3.003906 30.113281 2.644531 29.988281 C 2.296875 29.882812 1.976562 29.691406 1.703125 29.425781 C 1.433594 29.164062 1.222656 28.835938 1.066406 28.4375 C 0.917969 28.039062 0.847656 27.558594 0.847656 26.996094 M 10.3125 38.875 C 9.765625 38.875 9.222656 38.828125 8.652344 38.742188 C 8.082031 38.65625 7.605469 38.542969 7.226562 38.40625 L 7.226562 33.917969 C 7.570312 34.042969 7.898438 34.128906 8.210938 34.179688 C 8.546875 34.246094 8.890625 34.277344 9.234375 34.273438 C 9.511719 34.273438 9.777344 34.226562 10.019531 34.125 C 10.28125 34.039062 10.511719 33.863281 10.675781 33.621094 C 10.867188 33.382812 11.019531 33.058594 11.128906 32.648438 C 11.242188 32.25 11.296875 31.730469 11.296875 31.09375 L 11.296875 8.761719 L 16.417969 8.761719 L 16.417969 31.933594 C 16.417969 32.894531 16.304688 33.792969 16.082031 34.617188 C 15.886719 35.429688 15.523438 36.179688 15.023438 36.808594 C 14.542969 37.445312 13.914062 37.941406 13.140625 38.304688 C 12.367188 38.667969 11.429688 38.847656 10.320312 38.847656 M 11.085938 3.328125 C 11.085938 2.792969 11.160156 2.351562 11.304688 1.988281 C 11.453125 1.628906 11.648438 1.339844 11.894531 1.128906 C 12.152344 0.90625 12.445312 0.75 12.78125 0.660156 C 13.128906 0.574219 13.492188 0.53125 13.875 0.53125 C 14.234375 0.527344 14.597656 0.570312 14.949219 0.660156 C 15.269531 0.738281 15.566406 0.898438 15.820312 1.128906 C 16.085938 1.351562 16.292969 1.648438 16.425781 1.988281 C 16.582031 2.339844 16.660156 2.78125 16.660156 3.328125 C 16.660156 3.855469 16.582031 4.296875 16.425781 4.671875 C 16.28125 5.03125 16.078125 5.324219 15.820312 5.546875 C 15.5625 5.765625 15.265625 5.925781 14.949219 6.015625 C 14.597656 6.105469 14.234375 6.148438 13.875 6.148438 C 13.492188 6.148438 13.128906 6.105469 12.78125 6.015625 C 12.460938 5.925781 12.160156 5.765625 11.894531 5.546875 C 11.648438 5.324219 11.453125 5.03125 11.304688 4.671875 C 11.160156 4.3125 11.085938 3.867188 11.085938 3.328125 M 34.1875 23.460938 C 34.1875 24.558594 34.007812 25.519531 33.640625 26.339844 C 33.289062 27.15625 32.765625 27.863281 32.113281 28.398438 C 31.453125 28.945312 30.652344 29.359375 29.710938 29.632812 C 28.769531 29.90625 27.722656 30.042969 26.554688 30.042969 C 25.941406 30.042969 25.371094 30.019531 24.84375 29.972656 C 24.34375 29.9375 23.84375 29.867188 23.351562 29.765625 C 22.878906 29.664062 22.425781 29.542969 21.992188 29.390625 C 21.539062 29.234375 21.097656 29.046875 20.664062 28.832031 L 20.664062 24.117188 C 21.136719 24.382812 21.628906 24.605469 22.140625 24.828125 L 23.703125 25.390625 L 25.195312 25.746094 C 25.644531 25.828125 26.101562 25.871094 26.554688 25.875 C 27.015625 25.875 27.40625 25.832031 27.730469 25.746094 C 28.054688 25.644531 28.316406 25.503906 28.519531 25.355469 C 28.730469 25.179688 28.882812 24.980469 28.972656 24.746094 C 29.070312 24.511719 29.121094 24.253906 29.121094 23.996094 C 29.121094 23.734375 29.082031 23.503906 29.003906 23.304688 C 28.941406 23.089844 28.785156 22.875 28.519531 22.648438 C 28.261719 22.414062 27.878906 22.160156 27.375 21.863281 L 25.378906 20.765625 L 23.246094 19.550781 C 22.652344 19.140625 22.160156 18.699219 21.769531 18.1875 C 21.386719 17.6875 21.097656 17.109375 20.914062 16.484375 C 20.722656 15.835938 20.628906 15.070312 20.628906 14.183594 C 20.628906 13.210938 20.796875 12.363281 21.132812 11.640625 C 21.464844 10.90625 21.957031 10.277344 22.558594 9.804688 C 23.175781 9.320312 23.914062 8.957031 24.773438 8.710938 C 25.648438 8.460938 26.617188 8.335938 27.679688 8.335938 C 28.796875 8.335938 29.859375 8.480469 30.867188 8.765625 C 31.875 9.050781 32.910156 9.480469 33.972656 10.058594 L 32.429688 14.097656 C 31.578125 13.648438 30.765625 13.28125 29.996094 12.996094 C 29.25 12.710938 28.46875 12.566406 27.679688 12.5625 C 26.984375 12.5625 26.480469 12.703125 26.171875 12.976562 C 25.867188 13.25 25.71875 13.625 25.71875 14.097656 C 25.71875 14.347656 25.757812 14.585938 25.835938 14.769531 C 25.914062 14.957031 26.070312 15.15625 26.304688 15.378906 C 26.539062 15.582031 26.871094 15.804688 27.292969 16.054688 L 28.957031 16.929688 L 31.105469 18.089844 C 31.703125 18.433594 32.257812 18.867188 32.75 19.378906 C 33.203125 19.859375 33.566406 20.4375 33.808594 21.082031 C 34.054688 21.730469 34.175781 22.515625 34.175781 23.4375 "/>
</g>
</svg>
